<svg width="119" height="85" viewBox="0 0 119 85" fill="none" xmlns="http://www.w3.org/2000/svg">
<path d="M118.89 39.926C116.776 29.7973 111.5 21.8499 102.8 16.2669C100.775 14.9667 98.5572 13.9676 96.3018 12.7633C99.9828 9.99453 101.106 6.22545 100.441 1.83454C100.137 -0.175963 99.5366 -0.42912 97.7874 0.562614C92.0937 3.78729 88.979 8.78651 87.4333 14.8008C81.5299 9.53369 72.2066 6.16892 62.2631 6.16892C48.1127 6.16892 38.7906 9.72294 33.1765 16.8679C30.9493 19.703 29.5948 22.8822 29.1989 26.0614C28.5639 26.7397 27.8652 27.3886 27.1077 27.9895C25.0447 29.6326 22.5466 30.8971 19.7763 31.7389L18.7246 32.0351C18.3691 32.1224 18.0087 32.1949 17.6471 32.2784C17.4657 32.3165 17.2855 32.3632 17.1017 32.3952L16.5501 32.4849C16.1811 32.5414 15.8097 32.6152 15.4346 32.6594C14.6832 32.7331 13.9232 32.8437 13.1522 32.8646C12.7673 32.8831 12.38 32.9101 11.9914 32.9212H10.8195C7.68031 32.899 4.4516 32.48 1.24496 31.7586L1.23883 31.7574C0.820842 31.664 0.373432 31.8434 0.142986 32.2317C-0.143847 32.7159 0.0142786 33.3415 0.497236 33.6302C3.4195 35.3716 6.54524 36.8844 9.91 38.0212L11.1799 38.439C11.6077 38.5668 12.0429 38.6786 12.4768 38.7991C13.3422 39.0547 14.2346 39.2206 15.1294 39.4172C15.578 39.5081 16.034 39.5684 16.4888 39.6446L17.1752 39.7527C17.4044 39.7859 17.6361 39.8043 17.8678 39.8301C18.3311 39.8768 18.7969 39.9309 19.2652 39.9678L20.6797 40.0366C24.4662 40.146 28.4377 39.6274 32.2719 38.2706C32.5109 38.1858 32.75 38.0949 32.9878 38.0052C33.358 38.4095 33.7539 38.8027 34.178 39.1837C40.0385 44.4386 48.6471 44.6561 54.7209 40.13C56.6245 38.7118 58.9094 37.9007 61.2825 37.9007H61.3192C63.658 37.9007 65.9319 38.6663 67.8024 40.0734C70.5972 42.1761 74.0183 43.3387 77.5682 43.3387C83.6836 43.3387 89.1849 39.9506 91.9576 34.9513C93.0951 35.7526 94.4202 36.3511 95.9451 36.7296C97.8156 37.1929 99.7376 37.5947 101.654 37.693C104.807 37.8553 107.524 38.9453 109.994 40.8403C110.951 41.5752 111.894 42.5067 112.996 42.8299C114.296 43.2121 115.8 43.2674 117.145 43.0388C118.726 42.7648 119.252 41.6575 118.89 39.926ZM50.449 29.7407H47.7376V32.4591C47.7376 33.9608 46.5228 35.1775 45.0262 35.1775C43.5283 35.1775 42.3147 33.9608 42.3147 32.4591V29.7407H39.6033C38.1054 29.7407 36.8919 28.5241 36.8919 27.0224C36.8919 25.5206 38.1054 24.304 39.6033 24.304H42.3147V21.5857C42.3147 20.0839 43.5283 18.8673 45.0262 18.8673C46.5241 18.8673 47.7376 20.0839 47.7376 21.5857V24.304H50.449C51.9469 24.304 53.1604 25.5206 53.1604 27.0224C53.1604 28.5241 51.9457 29.7407 50.449 29.7407ZM77.567 18.8661C79.0649 18.8661 80.2784 20.0827 80.2784 21.5844C80.2784 23.0862 79.0649 24.3028 77.567 24.3028C76.0691 24.3028 74.8555 23.0862 74.8555 21.5844C74.8555 20.0839 76.0691 18.8661 77.567 18.8661ZM72.1429 29.7407C70.645 29.7407 69.4314 28.5241 69.4314 27.0224C69.4314 25.5206 70.645 24.304 72.1429 24.304C73.6408 24.304 74.8543 25.5206 74.8543 27.0224C74.8543 28.5241 73.6408 29.7407 72.1429 29.7407ZM77.567 35.1787C76.0691 35.1787 74.8555 33.9621 74.8555 32.4603C74.8555 30.9586 76.0691 29.742 77.567 29.742C79.0649 29.742 80.2784 30.9586 80.2784 32.4603C80.2784 33.9621 79.0649 35.1787 77.567 35.1787ZM82.9898 29.7407C81.4919 29.7407 80.2784 28.5241 80.2784 27.0224C80.2784 25.5206 81.4919 24.304 82.9898 24.304C84.4877 24.304 85.7012 25.5206 85.7012 27.0224C85.7012 28.5241 84.4877 29.7407 82.9898 29.7407Z" fill="white"/>
<path d="M23.7882 63.6825C23.494 63.6825 20.3633 63.6825 20.3633 63.6825C19.7333 63.6825 19.6487 63.4723 19.4182 62.9243C19.3766 62.8186 19.2295 62.3983 19.0186 61.7236H14.4808C14.2712 62.397 14.1241 62.8186 14.0812 62.9243C13.8716 63.4723 13.7662 63.6825 13.1361 63.6825C13.1361 63.6825 10.0067 63.6825 9.73336 63.6825C9.37666 63.6825 9.16582 63.4084 9.35582 62.9451C9.54459 62.4401 14.1658 49.824 14.3349 49.4664C14.482 49.1088 14.6083 48.9404 14.9858 48.9404H18.5148C18.8936 48.9404 19.0186 49.1088 19.1866 49.4664C19.3545 49.824 23.9757 62.4818 24.1657 62.9451C24.3336 63.4084 24.1449 63.6825 23.7882 63.6825ZM17.864 58.1008C17.5073 56.964 17.1285 55.7634 16.751 54.6045C16.3942 55.7634 16.0155 56.9628 15.6379 58.1008H17.864Z" fill="#E94E1B"/>
<path d="M35.3424 53.2145C35.3007 53.5943 35.1119 55.6994 35.069 56.0361C35.0065 56.5203 34.7123 56.7526 34.2919 56.626C33.8506 56.4785 33.1151 56.2684 32.2963 56.2893C31.5192 56.3102 30.2799 56.6469 30.2799 58.4374C30.2799 59.0064 30.2799 63.1761 30.2799 63.1761L30.2591 63.197V63.1761C30.2591 63.4502 30.0286 63.6812 29.7553 63.6812H26.6467C26.3734 63.6812 26.1221 63.4502 26.1221 63.1761V53.0253C26.1221 52.7303 26.3746 52.4993 26.6467 52.4993H29.7553C30.0286 52.4993 30.2591 52.7303 30.2591 53.0253V53.5512C30.6158 53.0462 32.0242 52.2031 33.4731 52.2031C34.2919 52.2031 34.8594 52.3506 35.1328 52.4563C35.3841 52.5829 35.3632 52.9196 35.3424 53.2145Z" fill="#E94E1B"/>
<path d="M54.8568 56.2477V63.1554C54.8568 63.4504 54.6264 63.6814 54.3531 63.6814H51.2653C50.9711 63.6814 50.7407 63.4504 50.7407 63.1554V56.9642C50.7407 55.8053 49.9844 55.4895 49.4377 55.4895C48.8701 55.4895 48.1359 55.7844 48.1359 56.9433V63.1567C48.1359 63.4516 47.9054 63.6827 47.6113 63.6827H44.5235C44.2293 63.6827 43.9989 63.4516 43.9989 63.1567V56.9654C43.9989 55.8065 43.2426 55.4907 42.6971 55.4907C42.1296 55.4907 41.3941 55.7856 41.3941 56.9654C41.3941 57.5344 41.3941 63.1567 41.3941 63.1567C41.3941 63.4516 41.1637 63.6827 40.8695 63.6827H37.7781C37.4839 63.6827 37.2534 63.4516 37.2534 63.1567V53.0267C37.2534 52.7318 37.4839 52.5008 37.7781 52.5008H40.8658C41.16 52.5008 41.3904 52.7318 41.3904 53.0267V53.5527C41.8525 52.8793 43.1335 52.2046 44.3948 52.2046C45.9491 52.2046 46.9371 52.647 47.5034 53.5109C48.4276 52.7527 49.4781 52.2046 50.927 52.2046C53.723 52.2046 54.8568 53.6572 54.8568 56.2477Z" fill="#E94E1B"/>
<path d="M67.6504 56.3534V63.1554C67.6504 63.4504 67.4199 63.6814 67.1257 63.6814H65.2981H64.038C63.7438 63.6814 63.5134 63.4504 63.5134 63.1554V62.7339C62.7571 63.5548 61.2861 63.9346 60.1106 63.9346C59.4597 63.9346 56.7495 63.5979 56.7495 60.775C56.7495 58.3529 58.4926 57.1952 60.1106 56.9421C61.1611 56.7946 62.6529 56.7319 63.5134 56.6889C63.4925 56.0572 63.2609 55.2781 61.8953 55.2781C60.6352 55.2781 59.4376 55.7414 58.8284 55.9946C58.5968 56.0794 58.3872 55.9946 58.3038 55.8053C58.1984 55.5952 57.5892 54.0787 57.5267 53.9103C57.4641 53.742 57.4641 53.447 57.7154 53.3413C58.4301 52.9616 60.194 52.2046 62.3795 52.2046C64.858 52.2046 67.3366 53.2578 67.6308 55.8483C67.6504 56.0167 67.6504 56.185 67.6504 56.3534ZM63.5121 60.018V58.7338C63.5121 58.7338 61.9162 58.649 61.2849 59.1553C60.4869 59.7661 60.7382 61.1142 62.0829 61.1142C63.4067 61.113 63.5121 60.018 63.5121 60.018Z" fill="#E94E1B"/>
<path d="M83.4053 63.6616C83.0278 63.7882 82.4186 63.9356 81.1573 63.9356C79.2879 63.9356 78.6996 62.8616 78.5525 62.504C77.5866 63.3888 76.3044 63.9356 74.8972 63.9356C71.7886 63.9356 69.5405 61.3033 69.5405 58.0602C69.5405 54.8171 71.7886 52.2056 74.8972 52.2056C76.0531 52.2056 77.1024 52.5633 78.0058 53.174V49.4676C78.0058 49.1727 78.2362 48.9417 78.5304 48.9417H81.6181C81.9123 48.9417 82.1428 49.1727 82.1428 49.4676V59.4931C82.1428 60.4824 82.7728 60.314 83.1295 60.314C83.55 60.2931 83.6125 60.4824 83.6542 60.7773C83.675 61.0305 83.8013 62.4413 83.8429 62.8628C83.9091 63.3236 83.7412 63.5559 83.4053 63.6616ZM78.007 58.0799C78.007 56.6691 77.019 55.5102 75.8018 55.5102C74.6042 55.5102 73.68 56.6691 73.68 58.0799C73.68 59.4907 74.6042 60.6286 75.8018 60.6286C77.019 60.6286 78.007 59.4907 78.007 58.0799Z" fill="#E94E1B"/>
<path d="M89.897 48.5606V50.7506C89.897 51.0455 89.6666 51.2765 89.3724 51.2765H86.2846C86.0113 51.2765 85.76 51.0455 85.76 50.7506V48.5606C85.76 48.2657 86.0125 48.0347 86.2846 48.0347H89.3724C89.6653 48.0347 89.897 48.2866 89.897 48.5606ZM89.897 53.0253V63.1552C89.897 63.4502 89.6666 63.6812 89.3724 63.6812H86.2846C86.0113 63.6812 85.76 63.4502 85.76 63.1552V53.0253C85.76 52.7304 86.0125 52.4993 86.2846 52.4993H89.3724C89.6653 52.4993 89.897 52.7304 89.897 53.0253Z" fill="#E94E1B"/>
<path d="M96.3457 48.5606V63.1552C96.3457 63.4502 96.1153 63.6812 95.8211 63.6812H92.7334C92.46 63.6812 92.2087 63.4502 92.2087 63.1552V48.5606C92.2087 48.2657 92.4613 48.0347 92.7334 48.0347H95.8211C96.1141 48.0347 96.3457 48.2657 96.3457 48.5606Z" fill="#E94E1B"/>
<path d="M102.795 48.5606V63.1552C102.795 63.4502 102.564 63.6812 102.27 63.6812H99.1824C98.909 63.6812 98.6577 63.4502 98.6577 63.1552V48.5606C98.6577 48.2657 98.9102 48.0347 99.1824 48.0347H102.27C102.563 48.0347 102.795 48.2657 102.795 48.5606Z" fill="#E94E1B"/>
<path d="M116.827 58.0591C116.827 61.3022 114.055 63.9346 110.756 63.9346C107.458 63.9346 104.685 61.3022 104.685 58.0591C104.685 54.816 107.458 52.2046 110.756 52.2046C114.055 52.2046 116.827 54.816 116.827 58.0591ZM113.067 58.0591C113.067 56.7319 112.037 55.6578 110.756 55.6578C109.496 55.6578 108.466 56.7319 108.466 58.0591C108.466 59.3864 109.496 60.4604 110.756 60.4604C112.038 60.4604 113.067 59.3864 113.067 58.0591Z" fill="#E94E1B"/>
<path d="M41.486 68.0245V77.3127C41.486 80.6615 40.4564 82.7248 37.4741 83.6305C36.5081 83.9255 34.9526 84.0729 33.8188 83.9672C32.3687 83.8407 30.7936 83.3147 29.5751 82.5356C29.3864 82.409 29.2393 82.1779 29.3655 81.84C29.4709 81.609 30.0802 80.1969 30.1635 79.9868C30.3314 79.671 30.6256 79.6501 30.899 79.7975C31.887 80.2608 32.6849 80.745 33.6925 80.8089C36.0669 80.9564 37.2424 80.0298 37.3061 78.8918C37.3478 78.3228 37.3478 77.9652 37.3478 77.9652C36.9482 78.2184 36.5069 78.4494 36.0669 78.6178C35.4993 78.8279 34.8693 78.9336 34.2392 78.9336C33.5883 78.9336 32.9791 78.8279 32.4324 78.6178C31.5915 78.3019 30.8573 77.7747 30.2898 77.0804C29.4072 76.0272 28.8826 74.6164 28.8826 73.0582C28.8826 69.8151 31.1306 67.2036 34.2392 67.2036C35.3731 67.2036 36.8857 67.9201 37.3478 68.5517V68.0258C37.3478 67.7308 37.5783 67.4998 37.8516 67.4998H40.9602C41.2348 67.4973 41.486 67.7296 41.486 68.0245ZM33.0208 73.0569C33.0208 74.6361 33.9034 75.6057 35.1426 75.6057C36.5707 75.6057 37.3478 74.4051 37.3478 73.0569C37.3478 72.0885 36.9274 70.4873 35.1426 70.4873C33.4829 70.4885 33.0208 72.1303 33.0208 73.0569Z" fill="#E94E1B"/>
<path d="M54.4892 71.351V78.153C54.4892 78.4479 54.2588 78.679 53.9646 78.679H52.137H50.8769C50.5827 78.679 50.3522 78.4479 50.3522 78.153V77.7315C49.5959 78.5524 48.125 78.9321 46.9495 78.9321C46.2986 78.9321 43.5884 78.5954 43.5884 75.7726C43.5884 73.3504 45.3314 72.1928 46.9495 71.9396C48 71.7921 49.4917 71.7295 50.3522 71.6865C50.3314 71.0548 50.0997 70.2757 48.7342 70.2757C47.4741 70.2757 46.2765 70.739 45.6673 70.9921C45.4356 71.0769 45.226 70.9921 45.1427 70.8029C45.0373 70.5927 44.428 69.0762 44.3655 68.9079C44.303 68.7395 44.303 68.4446 44.5543 68.3389C45.2689 67.9592 47.0328 67.2021 49.2184 67.2021C51.6969 67.2021 54.1754 68.2553 54.4696 70.8459C54.4892 71.0142 54.4892 71.1826 54.4892 71.351ZM50.351 75.0156V73.7314C50.351 73.7314 48.755 73.6466 48.1238 74.1529C47.3258 74.7637 47.5771 76.1118 48.9217 76.1118C50.2468 76.1105 50.351 75.0156 50.351 75.0156Z" fill="#E94E1B"/>
<path d="M74.4044 71.2463V78.154C74.4044 78.4489 74.174 78.68 73.9007 78.68H70.8129C70.5187 78.68 70.2883 78.4489 70.2883 78.154V71.9627C70.2883 70.8039 69.532 70.488 68.9853 70.488C68.4177 70.488 67.6835 70.783 67.6835 71.9418V78.1552C67.6835 78.4502 67.453 78.6812 67.1589 78.6812H64.0711C63.7769 78.6812 63.5465 78.4502 63.5465 78.1552V71.9639C63.5465 70.8051 62.7902 70.4892 62.2447 70.4892C61.6772 70.4892 60.9417 70.7842 60.9417 71.9639C60.9417 72.5329 60.9417 78.1552 60.9417 78.1552C60.9417 78.4502 60.7113 78.6812 60.4171 78.6812H57.3293C57.0351 78.6812 56.8047 78.4502 56.8047 78.1552V68.0253C56.8047 67.7303 57.0351 67.4993 57.3293 67.4993H60.4171C60.7113 67.4993 60.9417 67.7303 60.9417 68.0253V68.5512C61.4038 67.8778 62.6848 67.2031 63.9461 67.2031C65.5004 67.2031 66.4883 67.6455 67.0547 68.5095C67.9789 67.7512 69.0294 67.2031 70.4783 67.2031C73.2694 67.2019 74.4044 68.6557 74.4044 71.2463Z" fill="#E94E1B"/>
<path d="M80.2232 74.3628C80.6436 75.6261 81.8621 75.9849 82.66 76.0058C83.941 76.0476 84.6973 75.7957 85.4536 75.4577C85.7269 75.3521 86.0211 75.3521 86.1891 75.6679C86.2736 75.878 86.672 76.973 86.7774 77.2262C86.9037 77.5629 86.7566 77.7951 86.5678 77.9217C85.3494 78.68 83.648 78.9331 82.1979 78.9331C78.2693 78.9331 76.085 76.3008 76.085 73.0577C76.085 69.8146 78.2485 67.2031 82.03 67.2031C85.3286 67.2031 87.2812 69.8146 87.2812 73.0577C87.2812 74.0052 87.1758 74.3628 86.042 74.3628C85.5799 74.3628 83.9618 74.3628 80.2232 74.3628ZM80.1386 72.2564H83.5205C83.5205 70.9722 83.0167 70.1083 82.0288 70.1083C80.8741 70.1083 80.1386 70.9513 80.1386 72.2564Z" fill="#E94E1B"/>
<path d="M97.1758 75.7318C96.987 77.2692 96.357 78.9331 92.5546 78.9331C90.412 78.9331 89.4877 78.4907 89.2352 78.3432C88.9827 78.2167 88.8148 78.0692 88.8785 77.5223C88.9202 76.9324 88.9631 76.6166 89.0256 76.2799C89.0881 75.7957 89.3198 75.4369 90.0124 75.6482C90.727 75.8584 91.3154 75.9223 91.7775 75.9223C92.2813 75.9432 93.0584 75.9014 93.1638 75.3533C93.2484 74.9109 92.4075 74.5103 91.1683 74.047C90.0344 73.6254 88.626 72.5932 88.7731 70.3197C88.8785 68.8241 89.9498 67.2031 93.3109 67.2031C94.3406 67.2031 95.559 67.4354 95.9574 67.5607C96.3349 67.6873 96.6083 67.9184 96.5666 68.4665C96.5249 68.9506 96.4403 69.5823 96.3987 69.8564C96.3362 70.214 96.1682 70.488 95.4953 70.3405C94.7181 70.1722 94.3614 70.1304 93.7939 70.1304C93.2693 70.1304 92.828 70.3405 92.828 70.7412C92.828 71.2045 92.9751 71.3102 94.761 72.0893C96.5029 72.8254 97.3646 74.2153 97.1758 75.7318Z" fill="#E94E1B"/>
</svg>
