<svg width="30" height="30" viewBox="0 0 30 30" fill="none" xmlns="http://www.w3.org/2000/svg">
<circle cx="15" cy="15" r="15" fill="#3BEC3F"/>
<path d="M9.73875 20.22C9.73875 20.22 11.4988 22.24 14.8188 22.24C18.4588 22.24 20.2188 19.8 20.2188 17.46C20.2188 15.56 19.1188 13.8 17.0788 13.34L19.6588 9.88V7.7H11.4588C10.4388 7.7 10.1788 8.14 10.1788 9.16V11.92H13.3788V11.14C13.3788 10.86 13.5388 10.7 13.8188 10.7H14.1188C15.0188 10.7 15.4788 10.6 15.4788 10.6V10.64C15.4788 10.64 14.9388 11.06 14.3587 11.98L12.7788 14.44L13.4788 16.14H14.4987C15.7988 16.14 16.5988 16.76 16.5988 17.52C16.5988 18.32 15.9388 18.94 14.7588 18.94C12.7588 18.94 11.4188 17.52 11.4188 17.52L9.73875 20.22Z" fill="#0B0B0B"/>
</svg>
