<svg width="30" height="30" viewBox="0 0 30 30" fill="none" xmlns="http://www.w3.org/2000/svg">
<circle cx="15" cy="15" r="15" fill="#3BEC3F"/>
<path d="M9.5825 19.74C9.5825 21.34 9.7225 22 11.2025 22H18.8825C19.9025 22 20.3425 21.56 20.3425 20.54V17.78H17.1425V18.56C17.1425 18.84 16.9825 19 16.7025 19H13.9225C13.4825 19 13.3225 18.94 13.3225 18.7C13.3225 17.12 19.7225 16.54 19.7225 11.84C19.7225 8.86 17.1825 7.46 14.8425 7.46C12.7225 7.46 10.1625 8.44 10.1625 10.42V12.1H13.3625V11.52C13.3625 11.16 13.8025 10.7 14.7025 10.7C15.5025 10.7 16.1225 11.1 16.1225 11.9C16.1225 14.8 9.5825 14.64 9.5825 19.74Z" fill="#0B0B0B"/>
</svg>
