<svg width="520" height="107" viewBox="0 0 520 107" fill="none" xmlns="http://www.w3.org/2000/svg">
<g clip-path="url(#clip0_98_2)">
<rect width="106.634" height="106.634" rx="18.5111" fill="url(#paint0_linear_98_2)"/>
<path fill-rule="evenodd" clip-rule="evenodd" d="M45.8315 53.3179L24.2168 31.7032L32.8705 23.0495L63.1389 53.3179L32.8705 83.5863L24.2168 74.9326L45.8315 53.3179Z" fill="white"/>
<path d="M49.5897 85.2564H78.4663V73.0182H61.8279L49.5897 85.2564Z" fill="white"/>
<path d="M49.5888 21.3777L61.827 33.616H78.4663V21.3777H49.5888Z" fill="white"/>
</g>
<path d="M154.741 56.7749V79.0036H184.28V87.8951H144.861V18.739H184.28V27.6305H154.741V47.8834H178.353V56.7749H154.741Z" fill="white"/>
<path d="M258.382 87.8951V31.5823H258.185L237.833 87.8951H227.954L207.701 31.5823H207.503V87.8951H198.118V18.739H212.048L232.795 76.4349H232.992L253.838 18.739H267.768V87.8951H258.382Z" fill="white"/>
<path d="M285.528 87.8951V18.739H320.007L331.467 25.3582V54.7002L320.007 61.3194H295.407V87.8951H285.528ZM295.407 27.6305V52.4279H321.588V27.6305H295.407Z" fill="white"/>
<path d="M357.153 56.7749V79.0036H386.693V87.8951H347.274V18.739H386.693V27.6305H357.153V47.8834H380.765V56.7749H357.153Z" fill="white"/>
<path d="M425.328 60.3315H410.41V87.8951H400.53V18.739H435.998L447.458 25.3582V53.7122L435.998 60.3315L451.904 87.8951H440.937L425.328 60.3315ZM410.41 27.6305V51.44H437.578V27.6305H410.41Z" fill="white"/>
<path d="M495.301 18.739L520 87.8951H510.318L504.489 71.4952H473.863L468.034 87.8951H458.352L483.051 18.739H495.301ZM489.077 28.5197L477.024 62.6037H501.328L489.275 28.5197H489.077Z" fill="white"/>
<defs>
<linearGradient id="paint0_linear_98_2" x1="15.2176" y1="44.8752" x2="111.998" y2="64.7484" gradientUnits="userSpaceOnUse">
<stop stop-color="#7674F6"/>
<stop offset="1" stop-color="#D8BDFA"/>
</linearGradient>
<clipPath id="clip0_98_2">
<rect width="106.634" height="106.634" fill="white"/>
</clipPath>
</defs>
</svg>
