<svg width="54" height="37" viewBox="0 0 54 37" fill="none" xmlns="http://www.w3.org/2000/svg">
<path d="M26.7808 28.986C32.7014 28.986 37.5011 24.1072 37.5011 18.0888C37.5011 12.0705 32.7014 7.19165 26.7808 7.19165C20.8602 7.19165 16.0605 12.0705 16.0605 18.0888C16.0605 24.1072 20.8602 28.986 26.7808 28.986Z" stroke="#3BEC3F" stroke-width="2" stroke-linecap="round" stroke-linejoin="round"/>
<path d="M23.2979 23.868C26.5387 25.9124 30.8232 24.9426 32.8676 21.7018C34.912 18.4611 33.9422 14.1766 30.7014 12.1322C27.4607 10.0878 23.1762 11.0576 21.1317 14.2983C19.0873 17.5391 20.0572 21.8236 23.2979 23.868Z" stroke="#3BEC3F" stroke-width="2" stroke-linecap="round" stroke-linejoin="round" stroke-dasharray="4 4"/>
<path d="M11.5854 1.85669V8.77024" stroke="#3BEC3F" stroke-width="2" stroke-linecap="round" stroke-linejoin="round"/>
<path d="M1.84277 15.0391V21.9612" stroke="#3BEC3F" stroke-width="2" stroke-linecap="round" stroke-linejoin="round"/>
<path d="M26.7808 1.85669V3.19314" stroke="#3BEC3F" stroke-width="2" stroke-linecap="round" stroke-linejoin="round"/>
<path d="M4.44699 8.77024H3.35979C2.52543 8.77024 1.84277 8.08488 1.84277 7.23675V3.39875C1.84277 2.55061 2.52543 1.85669 3.35979 1.85669H4.44699C5.28135 1.85669 5.96401 2.55061 5.96401 3.39875V7.23675C5.96401 8.08488 5.28135 8.77024 4.44699 8.77024Z" stroke="#3BEC3F" stroke-width="2" stroke-linecap="round" stroke-linejoin="round"/>
<path d="M11.5854 28.2212V35.1433" stroke="#3BEC3F" stroke-width="2" stroke-linecap="round" stroke-linejoin="round"/>
<path d="M17.0718 30.4487V35.1434" stroke="#3BEC3F" stroke-width="2" stroke-linecap="round" stroke-linejoin="round"/>
<path d="M4.44699 35.1433H3.35979C2.52543 35.1433 1.84277 34.4494 1.84277 33.6013V29.7632C1.84277 28.9151 2.52543 28.2212 3.35979 28.2212H4.44699C5.28135 28.2212 5.96401 28.9151 5.96401 29.7632V33.6013C5.96401 34.4494 5.28135 35.1433 4.44699 35.1433Z" stroke="#3BEC3F" stroke-width="2" stroke-linecap="round" stroke-linejoin="round"/>
<path d="M10.0682 21.9612H8.97258C8.13822 21.9612 7.45557 21.2673 7.45557 20.4191V16.5811C7.45557 15.733 8.13822 15.0391 8.97258 15.0391H10.0598C10.8941 15.0391 11.5768 15.733 11.5768 16.5811V20.4191C11.5852 21.2673 10.9026 21.9612 10.0682 21.9612Z" stroke="#3BEC3F" stroke-width="2" stroke-linecap="round" stroke-linejoin="round"/>
<path d="M52.1572 21.9612V15.0391" stroke="#3BEC3F" stroke-width="2" stroke-linecap="round" stroke-linejoin="round"/>
<path d="M43.9399 15.0391H45.0271C45.8614 15.0391 46.5441 15.733 46.5441 16.5811V20.4191C46.5441 21.2673 45.8614 21.9612 45.0271 21.9612H43.9399C43.1055 21.9612 42.4229 21.2673 42.4229 20.4191V16.5811C42.4229 15.733 43.1055 15.0391 43.9399 15.0391Z" stroke="#3BEC3F" stroke-width="2" stroke-linecap="round" stroke-linejoin="round"/>
<path d="M52.1572 35.1433V28.2212" stroke="#3BEC3F" stroke-width="2" stroke-linecap="round" stroke-linejoin="round"/>
<path d="M43.9399 28.2212H45.0271C45.8614 28.2212 46.5441 28.9151 46.5441 29.7632V33.6013C46.5441 34.4494 45.8614 35.1433 45.0271 35.1433H43.9399C43.1055 35.1433 42.4229 34.4494 42.4229 33.6013V29.7632C42.4229 28.9151 43.1055 28.2212 43.9399 28.2212Z" stroke="#3BEC3F" stroke-width="2" stroke-linecap="round" stroke-linejoin="round"/>
<path d="M17.0718 7.23675V3.39875C17.0718 2.55061 17.7544 1.85669 18.5888 1.85669H19.676C20.5104 1.85669 21.193 2.55061 21.193 3.39875V4.54672" stroke="#3BEC3F" stroke-width="2" stroke-linecap="round" stroke-linejoin="round"/>
<path d="M42.0186 1.85669V8.77024" stroke="#3BEC3F" stroke-width="2" stroke-linecap="round" stroke-linejoin="round"/>
<path d="M32.3096 4.90653V3.39875C32.3096 2.55061 32.9922 1.85669 33.8266 1.85669H34.9138C35.7481 1.85669 36.4308 2.55061 36.4308 3.39875V7.23675" stroke="#3BEC3F" stroke-width="2" stroke-linecap="round" stroke-linejoin="round"/>
<path d="M32.3096 32.0934V33.6012C32.3096 34.4493 32.9922 35.1432 33.8266 35.1432H34.9138C35.7481 35.1432 36.4308 34.4493 36.4308 33.6012V29.7632" stroke="#3BEC3F" stroke-width="2" stroke-linecap="round" stroke-linejoin="round"/>
<path d="M22.6343 32.4531V33.6011C22.6343 34.4492 23.3169 35.1432 24.1513 35.1432H25.2385C26.0729 35.1432 26.7555 34.4492 26.7555 33.6011V32.9843" stroke="#3BEC3F" stroke-width="2" stroke-linecap="round" stroke-linejoin="round"/>
<path d="M50.3366 8.77024H49.2494C48.4151 8.77024 47.7324 8.07632 47.7324 7.22818V3.39875C47.7324 2.55061 48.4151 1.85669 49.2494 1.85669H50.3366C51.171 1.85669 51.8537 2.55061 51.8537 3.39875V7.23675C51.8452 8.08488 51.1626 8.77024 50.3366 8.77024Z" stroke="#3BEC3F" stroke-width="2" stroke-linecap="round" stroke-linejoin="round"/>
</svg>
