<svg width="42" height="43" viewBox="0 0 42 43" fill="none" xmlns="http://www.w3.org/2000/svg">
<path d="M16.3489 26.7568V32.1306C16.3489 32.5862 15.8515 32.8881 15.4535 32.663C15.0251 32.4215 14.5166 32.3035 13.9778 32.3584C12.8447 32.4764 11.9161 33.3876 11.7918 34.5129C11.6287 35.9894 12.7867 37.2382 14.2403 37.2382C14.6825 37.2382 15.097 37.1202 15.4563 36.9198C15.8542 36.692 16.3489 36.9967 16.3489 37.4523V42M16.3489 26.7568H11.0263C10.573 26.7568 10.2939 26.2902 10.4846 25.8785C10.6172 25.5931 10.6946 25.2774 10.7057 24.9481C10.7527 23.6142 9.65828 22.4533 8.31242 22.4176C6.91958 22.3792 5.77822 23.488 5.77822 24.863C5.77822 25.239 5.86389 25.5931 6.01589 25.9114C6.20381 26.3067 5.89982 26.7595 5.46041 26.7595L1 26.7568M16.3489 26.7568V21.4708C16.3489 21.0206 16.8187 20.7434 17.2332 20.9328C17.5207 21.0646 17.8385 21.1414 18.1701 21.1524C19.5132 21.199 20.6822 20.1122 20.7181 18.7756C20.7568 17.3923 19.6403 16.2589 18.2558 16.2589C17.8772 16.2589 17.5207 16.3439 17.2001 16.4949C16.8021 16.6815 16.3461 16.3796 16.3461 15.9432V11.5163H2.6388C1.73235 11.5135 1 12.2408 1 13.141V26.7568M1 26.7568V40.3725C1 41.27 1.73235 42 2.6388 42H16.3489M16.3489 42H30.059C30.9627 42 31.6978 41.2727 31.6978 40.3725V26.7568H27.1186C26.6598 26.7568 26.353 27.248 26.5824 27.6433C26.7869 28 26.903 28.409 26.903 28.8481C26.903 30.2917 25.6456 31.4417 24.1588 31.2798C23.0257 31.1563 22.1082 30.2341 21.9894 29.1088C21.9341 28.5737 22.0529 28.0687 22.2961 27.6433C22.5227 27.248 22.2187 26.754 21.76 26.754H16.3489M25.5986 8.45609C27.008 8.10753 28.4368 9.04068 28.6385 10.5118C28.7905 11.6343 28.1134 12.7403 27.0412 13.1273C26.5299 13.3112 26.0104 13.3167 25.535 13.185C25.0929 13.0614 24.6866 13.4731 24.7972 13.915L26.1071 19.1297L31.2722 17.8507C31.7116 17.7409 32.0958 18.1279 32.0128 18.5725C31.9548 18.8799 31.9548 19.2038 32.0239 19.5304C32.303 20.8368 33.6489 21.6986 34.9616 21.4131C36.3213 21.1167 37.1586 19.7636 36.8242 18.4325C36.733 18.0703 36.5645 17.7437 36.3406 17.4747C36.0615 17.1371 36.2466 16.6239 36.675 16.5196L41 15.4465L37.6837 2.23419C37.4654 1.36142 36.5755 0.831725 35.6967 1.04854L22.3928 4.34475L23.501 8.75799C23.6116 9.19986 24.1671 9.37551 24.4987 9.05989C24.7972 8.77446 25.1702 8.56313 25.5986 8.45609Z" stroke="#3BEC3F" stroke-width="2" stroke-miterlimit="10" stroke-linecap="round" stroke-linejoin="round"/>
</svg>
