<svg width="48" height="46" viewBox="0 0 48 46" fill="none" xmlns="http://www.w3.org/2000/svg">
<path d="M28 33.03L17 40L1 29" stroke="#3BEC3F" stroke-width="2" stroke-miterlimit="10" stroke-linecap="round" stroke-linejoin="round"/>
<path d="M31 10V12" stroke="#3BEC3F" stroke-width="2" stroke-miterlimit="10"/>
<path d="M17 19V21" stroke="#3BEC3F" stroke-width="2" stroke-miterlimit="10"/>
<path d="M28 22.9401L11.54 11.8101L18.95 7.34009L23.3 10.0701L36 18.0401V34.0401L28 39.2001V22.9401Z" stroke="#3BEC3F" stroke-width="2" stroke-miterlimit="10" stroke-linecap="round" stroke-linejoin="round"/>
<path d="M32.7 15.9699L38.42 12.3499C37.55 11.7999 37.37 11.0199 38.42 10.3599L32.13 6.37988C31.08 7.03988 29.85 6.92988 28.98 6.37988L23.22 10.0199" stroke="#3BEC3F" stroke-width="2" stroke-miterlimit="10"/>
<path d="M15.8201 14.71L9.56006 18.66C10.6101 19.32 10.4401 20.09 9.57006 20.64L15.8601 24.62C16.7301 24.07 17.9501 23.96 19.0001 24.63L24.9301 20.88" stroke="#3BEC3F" stroke-width="2" stroke-miterlimit="10"/>
<path d="M28 23.0299L17 29.9999L1 19.9999L12.83 12.6799" stroke="#3BEC3F" stroke-width="2" stroke-miterlimit="10" stroke-linecap="round" stroke-linejoin="round"/>
<path d="M20.0601 8.03L31.0001 1L47.0001 11L35.9401 18" stroke="#3BEC3F" stroke-width="2" stroke-miterlimit="10" stroke-linecap="round" stroke-linejoin="round"/>
<path d="M28 28.05L17 35L1 24" stroke="#3BEC3F" stroke-width="2" stroke-miterlimit="10" stroke-linecap="round" stroke-linejoin="round"/>
<path d="M47 16L36 22.96" stroke="#3BEC3F" stroke-width="2" stroke-miterlimit="10" stroke-linecap="round" stroke-linejoin="round"/>
<path d="M28 38.03L17 45L1 34" stroke="#3BEC3F" stroke-width="2" stroke-miterlimit="10" stroke-linecap="round" stroke-linejoin="round"/>
<path d="M47 26L36 32.97" stroke="#3BEC3F" stroke-width="2" stroke-miterlimit="10" stroke-linecap="round" stroke-linejoin="round"/>
<path d="M47 21L36 27.97" stroke="#3BEC3F" stroke-width="2" stroke-miterlimit="10" stroke-linecap="round" stroke-linejoin="round"/>
</svg>
