<svg width="44" height="46" viewBox="0 0 44 46" fill="none" xmlns="http://www.w3.org/2000/svg">
<path d="M33.6286 30.4267L38.194 25.8071L43 30.6624L42.8323 12.081L24.4468 11.919L29.2455 16.7669L14.7034 31.4655M11.6404 16.5754L5.79875 22.4695L1 17.6216L1.16044 36.2029L19.5532 36.365L14.7545 31.5097M27.0722 1L25.0083 3.08506M22.1349 5.98794L19.5532 8.56964M16.3954 11.7863L14.3315 13.8714M31.2875 32.7843L29.2236 34.8694M26.569 37.5512L24 40.1203M21.2598 42.9149L19.1959 45M38.3617 33.4474L31.3678 40.5131M16.585 3.93235L5.06946 15.566" stroke="#3BEC3F" stroke-width="2" stroke-miterlimit="10" stroke-linecap="round" stroke-linejoin="round"/>
</svg>
