<svg width="47" height="51" viewBox="0 0 47 51" fill="none" xmlns="http://www.w3.org/2000/svg">
<path d="M1 50C1 50 2.74398 36.5173 5.80916 36.5173H8.5044C9.52613 36.5173 10.495 36.9635 11.1556 37.7422L17.7528 45.5291H24.993C24.993 47.9964 22.9759 50 20.4921 50H13.9037L9.00646 43.9717M9.98415 50H46M19.2766 41.1632L23.8215 33.4113H45.084L38.192 45.8853H28.9965M10.4598 4.79238C10.4598 2.40382 12.6794 0.540223 15.172 1.10018C16.5549 1.41515 17.6735 2.52631 17.9906 3.89995C18.387 5.60607 17.6119 7.18094 16.3171 7.99462C15.1016 8.76456 14.2736 10.0157 14.2736 11.4506V11.6256M14.2736 14.7403V15.1341M35.4833 10.4532C35.4833 8.06462 37.7029 6.20102 40.1955 6.76097C41.5784 7.07595 42.697 8.18711 43.0141 9.56075C43.4105 11.2669 42.6353 12.8417 41.3406 13.6554C40.1251 14.4254 39.2971 15.6765 39.2971 17.1114V17.2864M39.2971 20.4011V20.7861M22.9671 17.5139C22.9671 15.1253 25.1867 13.2617 27.6794 13.8217C29.0622 14.1366 30.1809 15.2478 30.4979 16.6214C30.8943 18.3275 30.1192 19.9024 28.8244 20.7161C27.6089 21.486 26.781 22.7372 26.781 24.1721V24.3471M26.7898 27.4618V27.8555M12.1685 33.4113C9.53494 33.4113 7.37698 31.2678 7.37698 28.6517V25.7994C7.37698 23.1834 9.53494 21.0398 12.1685 21.0398C14.8021 21.0398 16.9601 23.1834 16.9601 25.7994V28.6517C16.9689 31.2678 14.8109 33.4113 12.1685 33.4113Z" stroke="#3BEC3F" stroke-width="2" stroke-miterlimit="10" stroke-linecap="round" stroke-linejoin="round"/>
</svg>
