<svg width="156" height="60" viewBox="0 0 156 60" fill="none" xmlns="http://www.w3.org/2000/svg">
<path d="M26.2357 23.165C23.3099 23.2217 20.6457 23.074 18.2988 22.8283C18.2191 23.476 18.148 24.1443 18.0873 24.8314C18.0267 25.5272 17.9781 26.2058 17.9435 26.8638C19.5624 27.0218 21.2992 27.1387 23.14 27.1868C24.9305 27.2331 26.624 27.2143 28.21 27.1455C25.8821 29.7276 23.3081 32.3802 20.4672 35.0499C19.1152 36.3212 17.7736 37.5306 16.4459 38.6799C17.1271 38.7847 17.8343 38.8792 18.5657 38.9617C19.5312 39.0716 20.462 39.1507 21.3529 39.2056C26.4195 34.7269 28.4353 32.7323 29.2916 31.76C29.3869 31.6517 31.0197 29.7946 31.0197 29.7946C31.0371 31.6621 30.9313 33.1825 30.8291 34.2476C30.6193 36.4243 30.1895 39.0802 30.1895 39.0905C31.2277 38.9686 32.266 38.8483 33.3043 38.7263C33.8832 36.6819 34.4327 34.0346 34.5921 30.9182C34.7637 27.5819 34.4361 24.7232 34.0253 22.5414C31.7235 22.8678 29.1096 23.1083 26.2357 23.165Z" fill="url(#paint0_linear_1018_508)"/>
<path d="M25.0016 0C11.1939 0 0 11.0946 0 24.7799C0 31.7188 2.87907 37.991 7.51573 42.4887L25.0016 59L42.4753 42.5007C47.1189 38.0013 50.0032 31.7256 50.0032 24.7799C50.0032 11.0946 38.8093 0 25.0016 0ZM25.0016 44.8406C13.8233 44.8406 4.76147 35.859 4.76147 24.7799C4.76147 13.7008 13.8233 4.71924 25.0016 4.71924C36.1799 4.71924 45.2417 13.7008 45.2417 24.7799C45.2417 35.859 36.1799 44.8406 25.0016 44.8406Z" fill="url(#paint1_linear_1018_508)"/>
<path d="M80.9656 0C93.9136 0 103.199 5.04909 103.199 14.4635H91.7903C91.6845 11.9398 88.5541 9.46769 80.9656 9.46769H78.3119C70.9365 9.46769 67.3277 12.4123 67.3277 17.0937V19.1982C67.3277 24.2473 70.9365 26.8243 78.3119 26.8243H80.9656C88.5004 26.8243 92.0035 24.4569 92.0035 21.1447H103.572V35.7663H93.9673V32.1895H92.0035C88.8731 34.8712 84.4687 36.292 79.3744 36.292H76.7207C65.3119 36.292 55.9189 30.98 55.9189 19.1982V17.0937C55.9189 5.31194 65.948 0 78.3119 0H80.9656Z" fill="white"/>
<path d="M135.198 0.525697C147.881 0.525697 156 5.31194 156 16.8309V19.7239C156 31.0316 148.252 35.7646 135.198 35.7646H110.205V0.525697H135.198ZM121.349 26.8226H135.198C142.256 26.8226 144.591 24.3504 144.591 19.7222V16.8309C144.591 12.0979 142.362 9.46769 135.198 9.46769H121.349V26.8226Z" fill="white"/>
<path d="M69.2795 41.0988V45.179H65.0571V58.7371H60.1431V45.179H55.9189V41.0988H69.2795Z" fill="#33D6FE"/>
<path d="M79.9308 41.0988L83.8083 58.7371H79.1335L78.4696 55.7101H73.6353L72.9715 58.7371H68.6156L72.4931 41.0988H79.9308ZM74.5384 51.6282H77.5665L76.3705 46.1788H75.7327L74.5384 51.6282Z" fill="#33D6FE"/>
<path d="M90.4487 41.0988V54.6569H96.16V58.7371H85.5347V41.0988H90.4487Z" fill="#33D6FE"/>
<path d="M109.014 41.0988V45.179H102.799V47.7593H108.006V51.6814H102.799V54.6569H109.146V58.7371H97.8847V41.0988H109.014Z" fill="#33D6FE"/>
<path d="M117.646 41.0988L121.897 51.2863H122.427V41.0988H126.677V58.7371H120.701L116.45 48.5496H115.92V58.7371H111.67V41.0988H117.646Z" fill="#33D6FE"/>
<path d="M141.764 41.0988V45.179H137.54V58.7371H132.626V45.179H128.402V41.0988H141.764Z" fill="#33D6FE"/>
<path d="M149.493 40.8359C153.185 40.8359 155.814 42.7051 155.814 45.995V46.811H150.9V45.995C150.9 45.337 150.581 44.5742 149.439 44.5742H149.28C148.217 44.5742 147.819 45.2064 147.819 45.7321V46.0482C147.819 46.8385 148.323 47.3127 150.9 48.2335C154.353 49.4704 156 50.9444 156 53.7361V53.999C156 56.7099 154.06 59.0017 149.439 59.0017H149.174C144.764 59.0017 142.56 56.6326 142.56 53.341V52.6298H147.474V53.3668C147.474 54.6312 148.163 55.2359 149.254 55.2359H149.413C150.502 55.2359 151.086 54.7102 151.086 54.0247V53.8667C151.086 53.1554 150.448 52.4975 147.368 51.4976C144.26 50.4978 142.906 48.9447 142.906 46.3643V45.8112C142.906 42.6261 145.245 40.8359 149.228 40.8359H149.493Z" fill="#33D6FE"/>
<defs>
<linearGradient id="paint0_linear_1018_508" x1="44.5" y1="9.5" x2="-2.61009e-06" y2="53.5" gradientUnits="userSpaceOnUse">
<stop stop-color="#33D6FE"/>
<stop offset="1" stop-color="#324AFE"/>
</linearGradient>
<linearGradient id="paint1_linear_1018_508" x1="44.5" y1="9.5" x2="-2.61009e-06" y2="53.5" gradientUnits="userSpaceOnUse">
<stop stop-color="#33D6FE"/>
<stop offset="1" stop-color="#324AFE"/>
</linearGradient>
</defs>
</svg>
