<svg width="40" height="40" viewBox="0 0 40 40" fill="none" xmlns="http://www.w3.org/2000/svg">
<path d="M21.7146 19.9159C21.7146 24.6559 17.8982 28.4983 13.1907 28.4983C8.48319 28.4983 4.6665 24.6559 4.6665 19.9159C4.6665 15.176 8.4829 11.3333 13.1907 11.3333C17.8985 11.3333 21.7146 15.176 21.7146 19.9159Z" fill="white"/>
<path d="M31.0656 19.9159C31.0656 24.3776 29.1574 27.9959 26.8035 27.9959C24.4496 27.9959 22.5414 24.3776 22.5414 19.9159C22.5414 15.4543 24.4493 11.836 26.8032 11.836C29.1571 11.836 31.0656 15.4531 31.0656 19.9159Z" fill="white"/>
<path d="M34.8904 19.9159C34.8904 23.9125 34.2194 27.1543 33.3914 27.1543C32.5634 27.1543 31.8927 23.9133 31.8927 19.9159C31.8927 15.9185 32.5637 12.6776 33.3914 12.6776C34.2191 12.6776 34.8904 15.9183 34.8904 19.9159Z" fill="white"/>
</svg>
