<svg width="40" height="40" viewBox="0 0 40 40" fill="none" xmlns="http://www.w3.org/2000/svg">
<path fill-rule="evenodd" clip-rule="evenodd" d="M20.4484 32.9999L20.4605 33H20.4563L20.4484 32.9999ZM20.5437 33H20.5395L20.5516 32.9999L20.5437 33ZM20.4072 32.9997L20.4202 32.9998H20.4127L20.4072 32.9997ZM20.5873 32.9998H20.5798L20.5928 32.9997L20.5873 32.9998ZM20.3674 32.9994L20.3761 32.9995L20.3692 32.9994H20.3674ZM20.6308 32.9994L20.6239 32.9995L20.6326 32.9994H20.6308ZM20.6744 32.9989L20.6713 32.999L20.6831 32.9988L20.6744 32.9989ZM20.3169 32.9988L20.3287 32.999L20.3256 32.9989L20.3169 32.9988ZM20.7179 32.9983L20.7108 32.9984L20.7253 32.9982L20.7179 32.9983ZM20.2747 32.9982L20.2892 32.9984L20.2821 32.9983L20.2747 32.9982ZM20.7614 32.9976L20.7518 32.9977L20.7651 32.9975L20.7614 32.9976ZM20.2349 32.9975L20.2482 32.9977L20.2386 32.9976L20.2349 32.9975ZM20.1854 32.9965L20.1973 32.9967L20.1952 32.9967L20.1854 32.9965ZM20.8048 32.9967L20.8027 32.9967L20.8146 32.9965L20.8048 32.9967ZM20.1421 32.9954L20.1584 32.9958L20.1518 32.9956L20.1421 32.9954ZM20.8482 32.9956L20.8416 32.9958L20.8579 32.9954L20.8482 32.9956ZM20.8916 32.9945L20.881 32.9948L20.8977 32.9943L20.8916 32.9945ZM20.1023 32.9943L20.119 32.9948L20.1084 32.9945L20.1023 32.9943ZM20.0644 32.9931L20.0762 32.9935L20.065 32.9931L20.0548 32.9928L20.0644 32.9931ZM20.935 32.9931L20.9238 32.9935L20.9356 32.9931L20.9452 32.9928L20.935 32.9931ZM20.9782 32.9917L20.9723 32.9919L20.9905 32.9913L20.9782 32.9917ZM20.0095 32.9913L20.0277 32.9919L20.0218 32.9917L20.0095 32.9913ZM19.97 32.9898L19.9891 32.9905L19.9785 32.9901L19.97 32.9898ZM21.0215 32.9901L21.0109 32.9905L21.03 32.9898L21.0215 32.9901ZM19.9312 32.9882L19.9499 32.989L19.9353 32.9885L19.9312 32.9882ZM21.0647 32.9885L21.0501 32.989L21.0688 32.9882L21.0647 32.9885ZM19.8769 32.9859L19.8969 32.9868L19.892 32.9866L19.8769 32.9859ZM21.108 32.9866L21.1031 32.9868L21.1231 32.9859L21.108 32.9866ZM19.8379 32.9841L19.8587 32.985L19.8489 32.9846L19.8379 32.9841ZM21.1511 32.9846L21.1413 32.985L21.1621 32.9841L21.1511 32.9846ZM19.7995 32.9821L19.8205 32.9832L19.8058 32.9825L19.7995 32.9821ZM21.1942 32.9825L21.1795 32.9832L21.2005 32.9821L21.1942 32.9825ZM21.2374 32.9802L21.2183 32.9812L21.2352 32.9803L21.2552 32.9792L21.2374 32.9802ZM19.7648 32.9803L19.7817 32.9812L19.7626 32.9802L19.7448 32.9792L19.7648 32.9803ZM21.2804 32.9778L21.272 32.9783L21.2934 32.9771L21.2804 32.9778ZM19.7066 32.9771L19.728 32.9783L19.7196 32.9778L19.7066 32.9771ZM19.6685 32.9748L19.6899 32.9761L19.6766 32.9753L19.6685 32.9748ZM21.3234 32.9753L21.3101 32.9761L21.3315 32.9748L21.3234 32.9753ZM19.6322 32.9725L19.6515 32.9737L19.6335 32.9726L19.6155 32.9715L19.6322 32.9725ZM21.3665 32.9726L21.3485 32.9737L21.3678 32.9725L21.3845 32.9715L21.3665 32.9726ZM21.4094 32.9698L21.403 32.9703L21.4234 32.9689L21.4094 32.9698ZM19.5766 32.9689L19.597 32.9703L19.5906 32.9698L19.5766 32.9689ZM19.5386 32.9663L19.5586 32.9677L19.5477 32.9669L19.5386 32.9663ZM21.4523 32.9669L21.4414 32.9677L21.4614 32.9663L21.4523 32.9669ZM19.5007 32.9636L19.5191 32.9649L19.5048 32.9639L19.5007 32.9636ZM21.4952 32.9639L21.4809 32.9649L21.4993 32.9636L21.4952 32.9639ZM19.4497 32.9597L19.4658 32.9609L19.4619 32.9607L19.4497 32.9597ZM21.5381 32.9607L21.5342 32.9609L21.5503 32.9597L21.5381 32.9607ZM21.5808 32.9573L21.5731 32.9579L21.5895 32.9566L21.5808 32.9573ZM19.4105 32.9566L19.4269 32.9579L19.4192 32.9573L19.4105 32.9566ZM19.3722 32.9535L19.3861 32.9546L19.3763 32.9539L19.3722 32.9535ZM21.6237 32.9539L21.6139 32.9546L21.6278 32.9535L21.6237 32.9539ZM19.3301 32.95L19.3343 32.9503L19.3336 32.9503L19.3301 32.95ZM21.6664 32.9503L21.6657 32.9503L21.6699 32.95L21.6664 32.9503ZM21.7091 32.9465L21.7053 32.9468L21.7148 32.946L21.7091 32.9465ZM19.2852 32.946L19.2947 32.9468L19.2909 32.9465L19.2852 32.946ZM19.2456 32.9424L19.2527 32.9431L19.2483 32.9427L19.2456 32.9424ZM21.7517 32.9427L21.7473 32.9431L21.7544 32.9424L21.7517 32.9427ZM18.3906 32.8359C11.9402 31.822 7 26.2334 7 19.5C7 12.0492 13.0492 6 20.5 6C27.9508 6 34 12.0492 34 19.5C34 26.2334 29.0598 31.822 22.6094 32.8359V23.4024H25.755L26.3535 19.5H22.6094V16.9677C22.6094 15.9001 23.1324 14.8594 24.8094 14.8594H26.5117V11.5371C26.5117 11.5371 24.9668 11.2734 23.4898 11.2734C20.4061 11.2734 18.3906 13.1424 18.3906 16.5258V19.5H14.9629V23.4024H18.3906V32.8359Z" fill="white"/>
</svg>
