<svg width="40" height="40" viewBox="0 0 40 40" fill="none" xmlns="http://www.w3.org/2000/svg">
<path d="M34.6667 10.8403C33.612 11.3231 32.4794 11.6489 31.2885 11.7938C32.5027 11.0443 33.4355 9.85723 33.8755 8.44308C32.7384 9.13631 31.4803 9.64215 30.1407 9.91262C29.0672 8.73569 27.5385 8 25.8459 8C22.5977 8 19.966 10.712 19.966 14.0582C19.966 14.5326 20.017 14.996 20.1174 15.4391C15.2294 15.1862 10.8961 12.7742 7.99462 9.10862C7.48925 10.004 7.19892 11.0443 7.19892 12.1548C7.19892 14.2575 8.23746 16.1111 9.81452 17.1985C8.85125 17.1662 7.94444 16.8948 7.15143 16.4406C7.15054 16.4655 7.15054 16.4923 7.15054 16.5163C7.15054 19.4526 9.17742 21.9015 11.8683 22.4582C11.3754 22.5957 10.8557 22.6705 10.319 22.6705C9.93907 22.6705 9.57168 22.6326 9.21326 22.5625C9.96057 24.968 12.1335 26.72 14.7061 26.7698C12.6944 28.3945 10.1586 29.3646 7.40323 29.3646C6.92832 29.3646 6.45968 29.336 6 29.2797C8.60215 30.9966 11.6935 32 15.0152 32C25.8324 32 31.7491 22.7683 31.7491 14.7615C31.7491 14.4994 31.7419 14.2372 31.7312 13.9769C32.8808 13.1231 33.8772 12.0569 34.6667 10.8403Z" fill="white"/>
</svg>
