<svg width="40" height="40" viewBox="0 0 40 40" fill="none" xmlns="http://www.w3.org/2000/svg">
<path d="M31.6963 9.41652C31.6872 9.39909 31.6721 9.38542 31.6538 9.37798C29.5358 8.41491 27.3008 7.72817 25.0046 7.33494C24.9837 7.33109 24.9622 7.33387 24.943 7.34286C24.9238 7.35186 24.908 7.36662 24.8977 7.38504C24.5934 7.93249 24.3171 8.49482 24.07 9.06987C21.5947 8.69749 19.077 8.69749 16.6018 9.06987C16.353 8.49336 16.0723 7.93089 15.761 7.38504C15.7503 7.36702 15.7344 7.3526 15.7153 7.34366C15.6963 7.33472 15.6749 7.33168 15.6541 7.33494C13.3576 7.72734 11.1224 8.41414 9.00473 9.37804C8.9866 9.38565 8.97131 9.39866 8.96095 9.41526C4.726 15.6831 3.56588 21.7969 4.13499 27.835C4.13659 27.8498 4.14118 27.8641 4.14848 27.8771C4.15578 27.8901 4.16565 27.9015 4.17749 27.9107C6.64347 29.7202 9.4017 31.1015 12.3345 31.9955C12.3551 32.0016 12.3772 32.0014 12.3977 31.9947C12.4182 31.9881 12.4361 31.9753 12.4491 31.9583C13.079 31.1089 13.6371 30.2094 14.1178 29.2691C14.1244 29.2562 14.1282 29.242 14.1289 29.2276C14.1296 29.2131 14.1271 29.1987 14.1218 29.1852C14.1165 29.1717 14.1083 29.1596 14.0978 29.1495C14.0874 29.1393 14.0749 29.1315 14.0612 29.1266C13.1811 28.7928 12.329 28.3905 11.513 27.9233C11.4981 27.9147 11.4857 27.9026 11.4767 27.8881C11.4677 27.8735 11.4625 27.857 11.4615 27.84C11.4605 27.823 11.4637 27.806 11.4709 27.7905C11.4781 27.775 11.489 27.7615 11.5027 27.7512C11.6739 27.6241 11.8452 27.4918 12.0087 27.3583C12.0233 27.3464 12.0408 27.3388 12.0595 27.3363C12.0781 27.3338 12.0971 27.3365 12.1143 27.3442C17.4604 29.7622 23.2482 29.7622 28.531 27.3442C28.5482 27.3361 28.5674 27.333 28.5863 27.3352C28.6053 27.3375 28.6231 27.3451 28.6379 27.357C28.8015 27.4906 28.9727 27.6241 29.1452 27.7512C29.159 27.7614 29.17 27.7748 29.1773 27.7903C29.1846 27.8057 29.188 27.8227 29.1871 27.8397C29.1862 27.8567 29.1811 27.8732 29.1722 27.8878C29.1634 27.9024 29.151 27.9146 29.1362 27.9233C28.3221 28.3944 27.4692 28.7965 26.5868 29.1253C26.5731 29.1305 26.5606 29.1384 26.5503 29.1487C26.5399 29.159 26.5318 29.1713 26.5266 29.1849C26.5213 29.1984 26.519 29.2129 26.5198 29.2275C26.5206 29.242 26.5245 29.2561 26.5312 29.2691C27.02 30.2042 27.5773 31.1025 28.1987 31.9568C28.2113 31.9743 28.2292 31.9875 28.2497 31.9944C28.2703 32.0013 28.2925 32.0016 28.3133 31.9953C31.2513 31.1044 34.0144 29.723 36.4834 27.9107C36.4955 27.902 36.5055 27.8908 36.5128 27.878C36.5201 27.8652 36.5246 27.8509 36.5259 27.8362C37.2073 20.8556 35.3853 14.7919 31.6963 9.41652ZM14.9162 24.1584C13.3066 24.1584 11.9804 22.6945 11.9804 20.8967C11.9804 19.0989 13.2809 17.635 14.9162 17.635C16.5643 17.635 17.8777 19.1117 17.8519 20.8966C17.8519 22.6945 16.5514 24.1584 14.9162 24.1584ZM25.7707 24.1584C24.1612 24.1584 22.8349 22.6945 22.8349 20.8967C22.8349 19.0989 24.1355 17.635 25.7707 17.635C27.4189 17.635 28.7322 19.1117 28.7065 20.8966C28.7065 22.6945 27.4189 24.1584 25.7707 24.1584Z" fill="white"/>
</svg>
