<svg width="40" height="40" viewBox="0 0 40 40" fill="none" xmlns="http://www.w3.org/2000/svg">
<path d="M30.2257 8H9.77287C8.79393 8 8 8.77012 8 9.71925V30.2812C8 31.2299 8.79393 32 9.77287 32H30.2257C31.2061 32 32 31.2294 32 30.2812V9.71925C32 8.76963 31.2056 8 30.2257 8ZM15.2745 28.091H11.6497V17.2539H15.2745V28.091ZM13.4623 15.7735H13.4381C12.2222 15.7735 11.4355 14.9412 11.4355 13.9013C11.4355 12.8383 12.2464 12.0291 13.4861 12.0291C14.7263 12.0291 15.4892 12.8383 15.5134 13.9013C15.5134 14.9412 14.7258 15.7735 13.4623 15.7735ZM28.346 28.091H24.7211V22.292C24.7211 20.8357 24.1967 19.8417 22.8851 19.8417C21.8838 19.8417 21.2875 20.512 21.0248 21.1595C20.9292 21.3906 20.9059 21.7139 20.9059 22.0382V28.0906H17.281C17.281 28.0906 17.3286 18.2692 17.281 17.2534H20.9059V18.7874C21.3876 18.0491 22.249 16.9977 24.1734 16.9977C26.5581 16.9977 28.3465 18.5471 28.3465 21.8761V28.091H28.346Z" fill="white"/>
</svg>
