<svg width="70" height="70" viewBox="0 0 70 70" fill="none" xmlns="http://www.w3.org/2000/svg">
<path d="M54.52 25.71H47.38V18.57M27.23 38H50.86M27.23 43.33H50.86M27.23 48.67H50.86M27.23 54H41.14M22.38 15H48.57L58.09 24.52V62.62C58.09 63.93 57.02 65 55.71 65H22.38C21.07 65 20 63.93 20 62.62V17.38C20 16.07 21.07 15 22.38 15Z" stroke="white" stroke-width="2" stroke-miterlimit="10" stroke-linecap="round" stroke-linejoin="round"/>
<path d="M43.57 10H17.38C16.07 10 15 11.07 15 12.38V57.62" stroke="white" stroke-width="2" stroke-miterlimit="10" stroke-linecap="round" stroke-linejoin="round"/>
<path d="M38.57 5H12.38C11.07 5 10 6.07 10 7.38V52.62" stroke="white" stroke-width="2" stroke-miterlimit="10" stroke-linecap="round" stroke-linejoin="round"/>
</svg>
